<svg xmlns="http://www.w3.org/2000/svg" viewBox="0 0 1200 675" role="img" aria-label="自动化产线方案"><defs><linearGradient id="bg" x1="0" x2="1" y1="0" y2="1"><stop stop-color="#0b2748"/><stop offset=".45" stop-color="#dce5ee"/><stop offset="1" stop-color="#f8fafc"/></linearGradient><linearGradient id="metal" x1="0" x2="1"><stop stop-color="#edf4fa"/><stop offset="1" stop-color="#9fb2c5"/></linearGradient><pattern id="grid" width="42" height="42" patternUnits="userSpaceOnUse"><path d="M42 0H0V42" fill="none" stroke="#145da0" stroke-opacity=".16"/></pattern><filter id="shadow" x="-20%" y="-20%" width="140%" height="140%"><feDropShadow dx="0" dy="18" stdDeviation="18" flood-color="#061a31" flood-opacity=".25"/></filter></defs><rect width="1200" height="675" fill="url(#bg)"/><rect width="1200" height="675" fill="url(#grid)" opacity=".9"/><path d="M0 520 C260 430 460 610 760 500 S1040 390 1200 450 V675 H0Z" fill="#061a31" opacity=".14"/><g filter="url(#shadow)"><rect x="145" y="205" width="520" height="230" rx="18" fill="url(#metal)" stroke="#40566e" stroke-width="8"/><rect x="205" y="250" width="190" height="120" rx="8" fill="#f8fbff" stroke="#61778d" stroke-width="6"/><rect x="430" y="250" width="170" height="120" rx="8" fill="#dbe6f1" stroke="#61778d" stroke-width="6"/><rect x="110" y="455" width="840" height="42" rx="20" fill="#29445f"/><g fill="#eef4fa" stroke="#1f3348" stroke-width="5"><circle cx="225" cy="476" r="22"/><circle cx="375" cy="476" r="22"/><circle cx="525" cy="476" r="22"/><circle cx="675" cy="476" r="22"/><circle cx="825" cy="476" r="22"/></g><path d="M760 165v210" stroke="#f28c28" stroke-width="34" stroke-linecap="round"/><path d="M760 170l150 95" stroke="#f28c28" stroke-width="26" stroke-linecap="round"/><circle cx="760" cy="170" r="36" fill="#f28c28" stroke="#7a4213" stroke-width="8"/><rect x="885" y="230" width="96" height="74" rx="10" fill="#edf4fa" stroke="#61778d" stroke-width="7"/><rect x="965" y="155" width="120" height="210" rx="10" fill="#142b44"/><rect x="985" y="182" width="80" height="52" rx="6" fill="#145da0"/><circle cx="1005" cy="280" r="12" fill="#f28c28"/><circle cx="1044" cy="280" r="12" fill="#9fb2c5"/></g><g fill="none" stroke="#ffffff" stroke-opacity=".38" stroke-width="2"><path d="M80 92h260v88H80z"/><path d="M98 120h220M98 148h160"/><path d="M760 70h260v60H760M790 100h200"/></g><rect x="54" y="52" width="360" height="52" rx="2" fill="#061a31" opacity=".86"/><text x="76" y="87" font-family="Arial, Microsoft YaHei, sans-serif" font-size="26" fill="#fff" font-weight="700">自动化产线方案</text><rect x="54" y="104" width="120" height="7" fill="#f28c28"/></svg>
