<svg xmlns="http://www.w3.org/2000/svg" viewBox="0 0 1600 900" role="img" aria-label="二里半智能制造工业自动化设备 Banner">
  <defs>
    <linearGradient id="bg" x1="0" x2="1" y1="0" y2="1">
      <stop offset="0" stop-color="#061a31" />
      <stop offset="0.48" stop-color="#0b2748" />
      <stop offset="1" stop-color="#145da0" />
    </linearGradient>
    <linearGradient id="metal" x1="0" x2="1">
      <stop offset="0" stop-color="#f8fbff" />
      <stop offset="1" stop-color="#9fb2c5" />
    </linearGradient>
    <pattern id="grid" width="60" height="60" patternUnits="userSpaceOnUse">
      <path d="M60 0H0V60" fill="none" stroke="#7fb2dc" stroke-opacity="0.16" />
    </pattern>
    <filter id="shadow" x="-20%" y="-20%" width="140%" height="140%">
      <feDropShadow dx="0" dy="22" stdDeviation="18" flood-color="#061a31" flood-opacity="0.36" />
    </filter>
  </defs>
  <rect width="1600" height="900" fill="url(#bg)" />
  <rect width="1600" height="900" fill="url(#grid)" />
  <path d="M0 690C260 590 510 745 775 640C1010 548 1220 490 1600 560V900H0Z" fill="#03101f" opacity="0.28" />
  <g fill="none" stroke="#d7e7f5" stroke-opacity="0.34" stroke-width="2">
    <path d="M90 110h360v105H90z" />
    <path d="M120 145h280M120 180h190" />
    <path d="M960 82h360v88H960z" />
    <path d="M1000 125h260" />
    <path d="M1170 250l230 130M1140 290l180 105" />
  </g>
  <g filter="url(#shadow)">
    <rect x="210" y="330" width="660" height="285" rx="26" fill="url(#metal)" stroke="#61778d" stroke-width="10" />
    <rect x="305" y="392" width="230" height="145" rx="12" fill="#f8fbff" stroke="#61778d" stroke-width="7" />
    <rect x="590" y="392" width="205" height="145" rx="12" fill="#dbe6f1" stroke="#61778d" stroke-width="7" />
    <rect x="155" y="665" width="1040" height="54" rx="28" fill="#29445f" />
    <g fill="#eef4fa" stroke="#1f3348" stroke-width="6">
      <circle cx="295" cy="693" r="28" />
      <circle cx="455" cy="693" r="28" />
      <circle cx="615" cy="693" r="28" />
      <circle cx="775" cy="693" r="28" />
      <circle cx="935" cy="693" r="28" />
      <circle cx="1095" cy="693" r="28" />
    </g>
    <path d="M1040 278v300" stroke="#f28c28" stroke-width="42" stroke-linecap="round" />
    <path d="M1040 282l210 145" stroke="#f28c28" stroke-width="34" stroke-linecap="round" />
    <circle cx="1040" cy="282" r="48" fill="#f28c28" stroke="#7a4213" stroke-width="10" />
    <rect x="1225" y="380" width="138" height="92" rx="14" fill="#edf4fa" stroke="#61778d" stroke-width="8" />
    <rect x="1250" y="188" width="205" height="310" rx="20" fill="#142b44" />
    <rect x="1285" y="245" width="135" height="82" rx="12" fill="#145da0" />
    <circle cx="1305" cy="404" r="18" fill="#f28c28" />
    <circle cx="1368" cy="404" r="18" fill="#9fb2c5" />
  </g>
  <rect x="80" y="70" width="520" height="72" rx="4" fill="#061a31" opacity="0.9" />
  <rect x="80" y="142" width="180" height="9" fill="#f28c28" />
  <text x="112" y="118" font-family="Arial, 'Microsoft YaHei', sans-serif" font-size="32" fill="#fff" font-weight="700">ELBZN AUTOMATION</text>
</svg>
